<?xml version="1.0" encoding="utf-8"?>
<!-- Generator: Adobe Illustrator 16.0.0, SVG Export Plug-In . SVG Version: 6.00 Build 0)  -->
<!DOCTYPE svg PUBLIC "-//W3C//DTD SVG 1.1//EN" "http://www.w3.org/Graphics/SVG/1.1/DTD/svg11.dtd">
<svg version="1.1" id="Layer_1" xmlns="http://www.w3.org/2000/svg" xmlns:xlink="http://www.w3.org/1999/xlink" x="0px" y="0px"
	 width="13.127px" height="14.307px" viewBox="0 0 13.127 14.307" enable-background="new 0 0 13.127 14.307" xml:space="preserve">
<g id="l7BMAR.tif">
	<g>
		<path fill="#2D3D4F" d="M1.214,13.094c0-0.338,0-0.586,0-0.834c0-3.062-0.001-6.126,0.001-9.19c0-0.414-0.021-0.833-0.558-0.854
			C0.085,2.195,0.013,2.625,0.002,3.07c-0.003,0.138-0.001,0.276-0.001,0.415c0,3.086,0,6.174,0,9.26
			c0,1.322,0.219,1.547,1.514,1.547c2.741,0.002,5.482,0.002,8.224,0c0.207,0,0.453,0.054,0.611-0.039
			c0.207-0.121,0.502-0.385,0.479-0.545c-0.034-0.222-0.301-0.453-0.523-0.584c-0.154-0.092-0.404-0.026-0.611-0.026
			c-2.557-0.001-5.112-0.001-7.669-0.001C1.777,13.094,1.531,13.094,1.214,13.094z"/>
		<g>
			<path fill="#2D3D4F" d="M11.966,0.05C9.018,0.014,6.068-0.016,3.121-0.04C2.294-0.046,1.94,0.302,1.93,1.12
				C1.908,2.802,1.896,4.484,1.878,6.166c-0.017,1.682-0.037,3.362-0.05,5.045c-0.007,0.858,0.296,1.175,1.138,1.185
				c2.949,0.032,5.896,0.062,8.846,0.089c0.843,0.008,1.193-0.313,1.202-1.142c0.042-3.363,0.074-6.727,0.103-10.089
				C13.123,0.412,12.786,0.061,11.966,0.05z M11.728,11.209c-2.893-0.029-5.738-0.058-8.623-0.087
				c0.033-3.289,0.066-6.548,0.1-9.865c2.848,0.029,5.707,0.058,8.623,0.087C11.795,4.602,11.762,7.878,11.728,11.209z"/>
		</g>
		<path fill="#2D3D4F" d="M1.214,13.094c0.317,0,0.563,0,0.809,0c2.557,0,5.115,0,7.671,0.001c0.207,0,0.432,0.021,0.611,0.026
			c0.273,0.01,0.471,0.207,0.521,0.586c0.021,0.158-0.075,0.42-0.283,0.541c-0.156,0.092-0.602,0.041-0.809,0.041
			c-2.739,0.002-5.48,0.002-8.222,0c-1.295,0-1.513-0.226-1.514-1.547c0-3.086,0-6.175,0-9.261c0-0.138-0.002-0.276,0.001-0.415
			c0.011-0.444,0.083-0.875,0.655-0.853c0.537,0.021,0.559,0.44,0.558,0.854c-0.002,3.064,0,6.128,0,9.192
			C1.214,12.508,1.214,12.756,1.214,13.094z"/>
	</g>
</g>
</svg>
