<?xml version="1.0" encoding="utf-8"?>
<!-- Generator: Adobe Illustrator 16.0.0, SVG Export Plug-In . SVG Version: 6.00 Build 0)  -->
<!DOCTYPE svg PUBLIC "-//W3C//DTD SVG 1.1//EN" "http://www.w3.org/Graphics/SVG/1.1/DTD/svg11.dtd">
<svg version="1.1" id="Layer_1" xmlns="http://www.w3.org/2000/svg" xmlns:xlink="http://www.w3.org/1999/xlink" x="0px" y="0px"
	 width="12.845px" height="13.375px" viewBox="0 0 12.845 13.375" enable-background="new 0 0 12.845 13.375" xml:space="preserve">
<image overflow="visible" width="161" height="46" xlink:href="../../../../Screen Shot 2018-03-21 at 1.36.40 PM.png"  transform="matrix(1 0 0 1 -61 30.0005)">
</image>
<g id="kLtvzw.tif">
	<g>
		<path fill="none" stroke="#FFFFFF" stroke-width="0.6566" stroke-miterlimit="10" d="M6.188,0.323c0.119,0,0.239,0,0.358,0
			c0.025,0.008,0.049,0.018,0.076,0.024c0.175,0.038,0.332,0.11,0.462,0.236c0.178,0.17,0.271,0.383,0.317,0.618
			c0.014,0.074,0.041,0.111,0.12,0.13c0.567,0.147,1.08,0.406,1.535,0.769c0.438,0.346,0.796,0.762,1.072,1.244
			c0.364,0.623,0.577,1.29,0.605,2.009c0.016,0.468,0.01,0.937,0.014,1.404c0.002,0.495-0.002,0.991,0.01,1.485
			c0.01,0.378,0.138,0.72,0.414,0.985c0.264,0.248,0.544,0.477,0.813,0.714c0.149,0.132,0.739,0.388,0.453,0.42
			c-0.283,0.033-7.539,0.025-11.579,0.025c0,0-0.561,0.061-0.481-0.081c0.327-0.298,0.648-0.599,0.982-0.889
			c0.453-0.393,0.67-0.879,0.662-1.482c-0.013-0.755-0.008-1.513,0-2.271C2.024,5.41,2.038,5.152,2.078,4.901
			c0.129-0.802,0.447-1.524,0.961-2.157c0.57-0.702,1.283-1.192,2.162-1.427c0.095-0.025,0.136-0.067,0.157-0.167
			c0.082-0.397,0.301-0.68,0.709-0.79C6.107,0.348,6.148,0.335,6.188,0.323z"/>
		<path fill-rule="evenodd" clip-rule="evenodd" fill="#FFFFFF" d="M4.244,11.409c1.463,0,2.913,0,4.376,0
			c-0.006,0.038-0.008,0.071-0.016,0.101c-0.219,0.757-0.646,1.349-1.38,1.666c-0.729,0.316-1.423,0.198-2.054-0.274
			c-0.464-0.351-0.752-0.822-0.906-1.382C4.255,11.486,4.251,11.451,4.244,11.409z"/>
	</g>
</g>
<circle fill="#FA5B4E" cx="8.62" cy="2.034" r="1.711"/>
<circle fill="#FFFFFF" cx="10.356" cy="6.221" r="0.026"/>
</svg>
