<?xml version="1.0" encoding="utf-8"?>
<!-- Generator: Adobe Illustrator 16.0.0, SVG Export Plug-In . SVG Version: 6.00 Build 0)  -->
<!DOCTYPE svg PUBLIC "-//W3C//DTD SVG 1.1//EN" "http://www.w3.org/Graphics/SVG/1.1/DTD/svg11.dtd">
<svg version="1.1" id="Layer_1" xmlns="http://www.w3.org/2000/svg" xmlns:xlink="http://www.w3.org/1999/xlink" x="0px" y="0px"
	 width="13.127px" height="14.583px" viewBox="0 0 13.127 14.583" enable-background="new 0 0 13.127 14.583" xml:space="preserve">
<g id="_x33_7jyBR.tif">
	<g>
		<path fill-rule="evenodd" clip-rule="evenodd" fill="#556471" d="M10.939,0c0,0.484,0,0.96,0,1.452c0.242,0,0.476,0.003,0.708,0
			c0.382-0.006,0.716,0.117,0.998,0.372c0.309,0.279,0.48,0.63,0.48,1.049c0.002,3.426,0.001,6.853,0.001,10.279
			c0,0.77-0.656,1.424-1.427,1.424c-3.406,0-6.812,0-10.218,0C0.638,14.576,0,13.934,0,13.094c0.002-2.737,0.002-5.476,0.004-8.213
			c0-0.66,0.001-1.321,0.003-1.98C0.008,2.097,0.656,1.452,1.46,1.452c0.237,0,0.476,0,0.727,0c0-0.25,0-0.488,0-0.726
			c0-0.238,0-0.477,0-0.724c0.487,0,0.966,0,1.459,0c0,0.479,0,0.958,0,1.444c1.947,0,3.882,0,5.83,0c0-0.482,0-0.961,0-1.446
			C9.968,0,10.444,0,10.939,0z M11.659,5.106c-3.402,0-6.796,0-10.188,0c0,2.675,0,5.342,0,8.003c3.402,0,6.794,0,10.188,0
			C11.659,10.437,11.659,7.774,11.659,5.106z"/>
		<path fill-rule="evenodd" clip-rule="evenodd" fill="#556471" d="M6.567,11.651c0-1.212,0-2.418,0-3.629c1.214,0,2.422,0,3.637,0
			c0,1.21,0,2.415,0,3.629C8.996,11.651,7.788,11.651,6.567,11.651z"/>
	</g>
</g>
</svg>
