<?xml version="1.0" encoding="utf-8"?>
<!-- Generator: Adobe Illustrator 16.0.0, SVG Export Plug-In . SVG Version: 6.00 Build 0)  -->
<!DOCTYPE svg PUBLIC "-//W3C//DTD SVG 1.1//EN" "http://www.w3.org/Graphics/SVG/1.1/DTD/svg11.dtd">
<svg version="1.1" id="Layer_1" xmlns="http://www.w3.org/2000/svg" xmlns:xlink="http://www.w3.org/1999/xlink" x="0px" y="0px"
	 width="13.127px" height="14.583px" viewBox="0 0 13.127 14.583" enable-background="new 0 0 13.127 14.583" xml:space="preserve">
<g id="NOwCyI.tif">
	<g>
		<path fill="#2D3D4F" d="M5.171,0.092c0.337,0.303,0.686,0.593,1.01,0.909C7.376,2.165,8.36,3.482,9.035,5.016
			c0.461,1.05,0.728,2.147,0.769,3.296c0,0.032,0.004,0.063,0.008,0.106c0.398-0.102,0.67-0.354,0.883-0.678
			c0.318-0.483,0.445-1.03,0.504-1.594c0.029-0.282,0.033-0.565,0.053-0.879c0.07,0.083,0.133,0.147,0.188,0.218
			c0.699,0.887,1.252,1.852,1.516,2.958c0.411,1.726-0.121,3.132-1.49,4.235c-0.811,0.652-1.738,1.087-2.714,1.422
			c-0.491,0.168-0.994,0.302-1.492,0.449c-0.038,0.013-0.079,0.018-0.099,0.021c0.221-0.298,0.464-0.589,0.665-0.906
			c0.538-0.851,0.776-1.781,0.673-2.789c-0.066-0.652-0.283-1.26-0.6-1.834C7.377,8.1,6.656,7.329,5.844,6.625
			C5.822,6.64,5.801,6.65,5.786,6.666c-0.991,1.06-1.825,2.223-2.334,3.596c-0.238,0.64-0.37,1.302-0.326,1.988
			c0.053,0.842,0.379,1.574,0.944,2.199c0.031,0.033,0.062,0.067,0.08,0.127c-0.132-0.043-0.266-0.082-0.397-0.13
			c-0.917-0.335-1.781-0.767-2.516-1.425c-0.529-0.473-0.936-1.031-1.111-1.73c-0.185-0.736-0.066-1.447,0.231-2.133
			c0.514-1.182,1.199-2.265,1.949-3.308C2.845,5.101,3.4,4.362,3.934,3.609c0.427-0.603,0.817-1.23,1.056-1.938
			c0.174-0.514,0.24-1.039,0.154-1.579C5.152,0.092,5.162,0.092,5.171,0.092z"/>
	</g>
</g>
</svg>
