<?xml version="1.0" encoding="utf-8"?>
<!-- Generator: Adobe Illustrator 16.0.0, SVG Export Plug-In . SVG Version: 6.00 Build 0)  -->
<!DOCTYPE svg PUBLIC "-//W3C//DTD SVG 1.1//EN" "http://www.w3.org/Graphics/SVG/1.1/DTD/svg11.dtd">
<svg version="1.1" id="Layer_1" xmlns="http://www.w3.org/2000/svg" xmlns:xlink="http://www.w3.org/1999/xlink" x="0px" y="0px"
	 width="13.127px" height="14.307px" viewBox="0 0 13.127 14.307" enable-background="new 0 0 13.127 14.307" xml:space="preserve">
<g id="l7BMAR.tif">
	<g>
		<path fill="#2D3D4F" d="M1.214,13.094c0-0.338,0-0.586,0-0.834c0-3.062-0.001-6.126,0.001-9.19c0-0.414-0.021-0.833-0.558-0.854
			C0.085,2.195,0.013,2.625,0.002,3.07c-0.003,0.138-0.001,0.276-0.001,0.415c0,3.086,0,6.174,0,9.26
			c0,1.322,0.219,1.547,1.514,1.547c2.741,0.002,5.482,0.002,8.224,0c0.207,0,0.453,0.055,0.611-0.039
			c0.207-0.121,0.502-0.385,0.479-0.545c-0.034-0.222-0.301-0.453-0.523-0.584c-0.154-0.092-0.404-0.025-0.611-0.025
			c-2.557-0.001-5.111-0.001-7.668-0.001C1.777,13.094,1.531,13.094,1.214,13.094z"/>
		<g>
			<path fill="#2D3D4F" d="M3.156,11.167c2.884,0,5.73,0,8.623,0c0-3.332,0-6.606,0-9.866c-2.912,0-5.772,0-8.623,0
				C3.156,4.617,3.156,7.877,3.156,11.167z"/>
			<path fill="#2D3D4F" d="M11.903,0.005c-2.949-0.006-5.898-0.006-8.846,0C2.231,0.007,1.881,0.359,1.879,1.177
				C1.874,2.859,1.878,4.541,1.878,6.222c0,1.682-0.003,3.362,0.001,5.045c0.002,0.858,0.308,1.172,1.15,1.173
				c2.949,0.003,5.897,0.002,8.846,0c0.843-0.001,1.19-0.326,1.19-1.154c0.008-3.363,0.006-6.727,0-10.09
				C13.063,0.355,12.724,0.007,11.903,0.005z M11.778,11.167c-2.895,0-5.738,0-8.625,0c0-3.289,0-6.547,0-9.866
				c2.848,0,5.708,0,8.625,0C11.778,4.558,11.778,7.834,11.778,11.167z"/>
		</g>
		<path fill="#2D3D4F" d="M1.214,13.094c0.317,0,0.563,0,0.809,0c2.557,0,5.115,0,7.671,0.001c0.207,0,0.432,0.021,0.611,0.026
			c0.272,0.01,0.471,0.207,0.521,0.586c0.021,0.158-0.075,0.42-0.283,0.541c-0.155,0.092-0.603,0.041-0.81,0.041
			c-2.738,0.002-5.479,0.002-8.221,0c-1.295,0-1.513-0.227-1.514-1.547c0-3.086,0-6.176,0-9.262c0-0.138-0.002-0.276,0.001-0.415
			C0.01,2.622,0.082,2.191,0.654,2.213c0.537,0.021,0.559,0.44,0.558,0.854c-0.002,3.064,0,6.128,0,9.191
			C1.214,12.508,1.214,12.756,1.214,13.094z"/>
	</g>
</g>
<path fill="#2D3D4F" d="M11.937,11.333c-2.998,0-5.948,0-8.938,0c0-3.408,0-6.787,0-10.225c2.952,0,5.915,0,8.938,0
	C11.937,4.484,11.937,7.879,11.937,11.333z"/>
<rect x="3.617" y="1.885" fill="#FFFFFF" width="7.698" height="1.75"/>
<rect x="3.617" y="5.346" fill="#FFFFFF" width="7.698" height="1.75"/>
<rect x="3.617" y="8.604" fill="#FFFFFF" width="4.827" height="1.75"/>
</svg>
