<?xml version="1.0" encoding="utf-8"?>
<!-- Generator: Adobe Illustrator 16.0.0, SVG Export Plug-In . SVG Version: 6.00 Build 0)  -->
<!DOCTYPE svg PUBLIC "-//W3C//DTD SVG 1.1//EN" "http://www.w3.org/Graphics/SVG/1.1/DTD/svg11.dtd">
<svg version="1.1" id="Layer_1" xmlns="http://www.w3.org/2000/svg" xmlns:xlink="http://www.w3.org/1999/xlink" x="0px" y="0px"
	 width="223.75px" height="6.75px" viewBox="0 0 223.75 6.75" enable-background="new 0 0 223.75 6.75" xml:space="preserve">
<path fill="#EBEBEB" d="M223.75,3.375c0,1.864-1.512,3.375-3.375,3.375h-217C1.511,6.75,0,5.239,0,3.375l0,0
	C0,1.511,1.511,0,3.375,0h217C222.238,0,223.75,1.511,223.75,3.375L223.75,3.375z"/>
<path fill="#31B298" d="M57,6.75H3.375C1.511,6.75,0,5.239,0,3.375l0,0C0,1.511,1.511,0,3.375,0H57"/>
<polygon fill="#40B6A5" points="16.667,0 22.833,6.75 31,6.75 25,0 "/>
<polygon fill="#40B6A5" points="3.001,0 9.167,6.75 16,6.75 10,0 "/>
<polygon fill="#40B6A5" points="32.667,0 38.833,6.75 47,6.75 41,0 "/>
<polygon fill="#40B6A5" points="48.583,0 54.75,6.75 57,6.75 56.917,0 "/>
</svg>
