<?xml version="1.0" encoding="utf-8"?>
<!-- Generator: Adobe Illustrator 16.0.0, SVG Export Plug-In . SVG Version: 6.00 Build 0)  -->
<!DOCTYPE svg PUBLIC "-//W3C//DTD SVG 1.1//EN" "http://www.w3.org/Graphics/SVG/1.1/DTD/svg11.dtd">
<svg version="1.1" id="Layer_1" xmlns="http://www.w3.org/2000/svg" xmlns:xlink="http://www.w3.org/1999/xlink" x="0px" y="0px"
	 width="77.845px" height="13.375px" viewBox="0 0 77.845 13.375" enable-background="new 0 0 77.845 13.375" xml:space="preserve">
<circle fill="#2B3D4F" cx="6.704" cy="6.703" r="6.704"/>
<circle fill="#FFFFFF" cx="6.604" cy="3.853" r="1.785"/>
<circle fill="#FFFFFF" cx="4.002" cy="8.455" r="1.784"/>
<circle fill="#FFFFFF" cx="9.405" cy="8.455" r="1.784"/>
<g>
	<path fill="#2B3D4F" d="M20.047,0.612h2.598v7.515c0,0.841,0.1,1.454,0.298,1.841c0.31,0.686,0.981,1.028,2.019,1.028
		c1.031,0,1.701-0.343,2.01-1.028c0.198-0.387,0.298-1,0.298-1.841V0.612h2.599v7.521c0,1.301-0.202,2.313-0.605,3.038
		c-0.751,1.328-2.185,1.992-4.301,1.992s-3.553-0.664-4.31-1.992c-0.403-0.725-0.604-1.737-0.604-3.038V0.612z"/>
	<path fill="#2B3D4F" d="M40.878,7.551c-0.716,0.598-1.738,0.896-3.068,0.896h-2.548v4.399h-2.539V0.612h5.253
		c1.211,0,2.177,0.315,2.896,0.946c0.721,0.631,1.081,1.607,1.081,2.93C41.953,5.933,41.595,6.954,40.878,7.551z M38.927,3.144
		c-0.323-0.271-0.777-0.407-1.36-0.407h-2.305v3.603h2.305c0.583,0,1.037-0.146,1.36-0.44c0.324-0.293,0.485-0.758,0.485-1.395
		S39.251,3.415,38.927,3.144z"/>
	<path fill="#2B3D4F" d="M44.343,0.612h2.557v10.036h6.109v2.199h-8.666V0.612z"/>
	<path fill="#2B3D4F" d="M64.148,11.759c-0.925,0.952-2.261,1.428-4.01,1.428s-3.085-0.476-4.01-1.428
		c-1.239-1.167-1.859-2.85-1.859-5.046c0-2.241,0.62-3.923,1.859-5.047c0.925-0.952,2.261-1.428,4.01-1.428s3.085,0.476,4.01,1.428
		c1.233,1.124,1.851,2.806,1.851,5.047C65.999,8.91,65.382,10.592,64.148,11.759z M62.55,9.9c0.595-0.746,0.893-1.81,0.893-3.187
		c0-1.373-0.298-2.434-0.893-3.183c-0.595-0.75-1.398-1.125-2.411-1.125s-1.82,0.374-2.424,1.121s-0.904,1.81-0.904,3.188
		c0,1.377,0.301,2.441,0.904,3.187c0.604,0.748,1.411,1.121,2.424,1.121S61.955,10.648,62.55,9.9z"/>
	<path fill="#2B3D4F" d="M67.909,0.612h2.68l4.857,8.531V0.612h2.382v12.235h-2.556l-4.981-8.682v8.682h-2.382V0.612z"/>
</g>
</svg>
