<?xml version="1.0" encoding="utf-8"?>
<!-- Generator: Adobe Illustrator 16.0.0, SVG Export Plug-In . SVG Version: 6.00 Build 0)  -->
<!DOCTYPE svg PUBLIC "-//W3C//DTD SVG 1.1//EN" "http://www.w3.org/Graphics/SVG/1.1/DTD/svg11.dtd">
<svg version="1.1" id="Layer_1" xmlns="http://www.w3.org/2000/svg" xmlns:xlink="http://www.w3.org/1999/xlink" x="0px" y="0px"
	 width="18.125px" height="13.375px" viewBox="0 0 18.125 13.375" enable-background="new 0 0 18.125 13.375" xml:space="preserve">
<g id="kX6k5m.tif">
	<g>
		<path fill="#FFFFFF" d="M16.501,0.001c-4.926,0-9.85-0.001-14.774,0c-1.165,0-1.724,0.561-1.724,1.734
			C0,4.977-0.004,8.219,0.011,11.463c0.001,0.366,0.066,0.754,0.2,1.094c0.19,0.488,0.625,0.72,1.141,0.773
			c0.187,0.019,0.375,0.013,0.564,0.013c4.829,0,9.66,0,14.49,0c1.078,0,1.72-0.192,1.72-1.147V1.054
			C18.125,0.213,17.47,0.001,16.501,0.001z M16.578,2.445c-0.062,0.092-0.125,0.183-0.21,0.254c-0.045,0.04-0.277,0.221-0.354,0.282
			c-2.291,1.783-4.556,3.6-6.869,5.436C8.879,8.206,8.61,7.992,8.34,7.779C7.012,6.727,5.687,5.671,4.356,4.622
			C4.288,4.589,4.231,4.542,4.186,4.488C3.535,3.975,2.887,3.46,2.231,2.956c-0.035-0.027-0.26-0.197-0.337-0.273
			C1.89,2.678,1.887,2.672,1.882,2.668c-0.376-0.285-0.27-1.036,0.333-1.036c0.166,0,0.292,0.062,0.383,0.151
			c0.038,0.023,4.465,3.471,6.541,5.065c0.702-0.539,1.405-1.074,2.105-1.612c1.402-1.078,4.372-3.404,4.343-3.371
			c0.229-0.21,0.501-0.373,0.785-0.207c0.022,0.014,0.045,0.031,0.066,0.047c0,0,0.002,0,0.004-0.001
			c0,0.002,0.002,0.004,0.002,0.007C16.65,1.883,16.74,2.212,16.578,2.445z"/>
	</g>
</g>
</svg>
