<?xml version="1.0" encoding="utf-8"?>
<!-- Generator: Adobe Illustrator 16.0.0, SVG Export Plug-In . SVG Version: 6.00 Build 0)  -->
<!DOCTYPE svg PUBLIC "-//W3C//DTD SVG 1.1//EN" "http://www.w3.org/Graphics/SVG/1.1/DTD/svg11.dtd">
<svg version="1.1" id="Layer_1" xmlns="http://www.w3.org/2000/svg" xmlns:xlink="http://www.w3.org/1999/xlink" x="0px" y="0px"
	 width="45.334px" height="48.627px" viewBox="-0.472 -0.401 45.334 48.627" enable-background="new -0.472 -0.401 45.334 48.627"
	 xml:space="preserve">
<g id="lIRzC4.tif">
	<g>
		<path fill="#5C5C5C" stroke="#5C5C5C" stroke-width="0.7863" stroke-miterlimit="10" d="M22.276,26.945
			c-0.263-0.125-0.491-0.207-0.696-0.334c-6.907-4.272-13.813-8.545-20.709-12.84c-0.274-0.172-0.572-0.551-0.61-0.872
			c-0.025-0.216,0.349-0.587,0.611-0.738C7.856,8.133,14.845,4.116,21.852,0.14c0.349-0.199,0.942-0.181,1.296,0.022
			c6.884,3.953,13.752,7.944,20.613,11.95c0.309,0.18,0.741,0.587,0.724,0.856c-0.021,0.32-0.419,0.701-0.73,0.894
			c-6.808,4.193-13.626,8.366-20.444,12.537C22.976,26.604,22.619,26.765,22.276,26.945z M42.357,12.951
			c-0.379-0.274-0.607-0.473-0.86-0.618c-6.076-3.515-12.159-7.017-18.23-10.544c-0.532-0.309-0.952-0.317-1.494-0.007
			c-6.144,3.521-12.3,7.012-18.451,10.517c-0.272,0.156-0.521,0.364-0.925,0.649c0.435,0.297,0.702,0.494,0.979,0.667
			c5.981,3.724,11.967,7.434,17.935,11.184c0.679,0.428,1.196,0.445,1.886,0.018c6.065-3.76,12.151-7.476,18.228-11.208
			C41.698,13.44,41.955,13.235,42.357,12.951z"/>
		<path fill="#5C5C5C" stroke="#5C5C5C" stroke-width="0.7863" stroke-miterlimit="10" d="M42.153,23.477
			c-1.258-0.727-2.305-1.33-3.388-1.956c0.727-0.827,1.372-0.959,2.266-0.404c1,0.622,1.756,1,2.618,1.536
			c0.833,0.517,0.842,1.099,0.024,1.604C36.74,28.542,29.8,32.814,22.87,37.106c-0.583,0.36-1.086,0.368-1.675,0
			c-6.813-4.253-13.637-8.481-20.448-12.74c-0.296-0.185-0.667-0.51-0.667-0.898c0-0.312,0.415-0.678,0.719-0.871
			c0.885-0.559,1.803-1.059,2.701-1.577c1.001-0.58,1.698-0.225,2.272,0.354c-1.206,0.687-2.361,1.344-3.682,2.097
			c0.41,0.307,0.638,0.504,0.886,0.658c6.109,3.812,12.226,7.61,18.325,11.439c0.516,0.324,0.889,0.283,1.387-0.023
			c6.204-3.826,12.419-7.627,18.629-11.438C41.544,23.965,41.75,23.782,42.153,23.477z"/>
		<path fill="#5C5C5C" stroke="#5C5C5C" stroke-width="0.7863" stroke-miterlimit="10" d="M42.135,33.844
			c-1.14-0.646-2.117-1.196-3.144-1.776c0.732-0.687,1.336-0.972,2.262-0.392c0.839,0.523,1.555,0.848,2.307,1.326
			c0.278,0.176,0.655,0.561,0.64,0.82c-0.021,0.34-0.065,0.604-0.619,0.954c-3.64,2.312-7.327,4.522-10.998,6.771
			c-3.25,1.99-6.508,3.965-9.75,5.975c-0.552,0.342-0.997,0.371-1.568,0.014c-6.783-4.24-13.58-8.453-20.372-12.673
			c-0.158-0.099-0.315-0.194-0.461-0.312c-0.584-0.461-0.582-1.033,0.042-1.385c1.093-0.617,2.179-1.285,3.326-1.73
			c0.451-0.176,0.964-0.042,1.81,0.482c-0.088,0.1-0.408,0.236-0.216,0.133c-1.056,0.563-2.111,1.125-3.337,1.779
			c0.362,0.279,0.559,0.461,0.778,0.598c6.108,3.811,12.22,7.611,18.323,11.432c0.546,0.342,0.991,0.404,1.569,0.048
			c6.254-3.86,12.521-7.69,18.784-11.532C41.682,34.271,41.827,34.109,42.135,33.844z"/>
	</g>
</g>
</svg>
