<?xml version="1.0" encoding="utf-8"?>
<!-- Generator: Adobe Illustrator 16.0.0, SVG Export Plug-In . SVG Version: 6.00 Build 0)  -->
<!DOCTYPE svg PUBLIC "-//W3C//DTD SVG 1.1//EN" "http://www.w3.org/Graphics/SVG/1.1/DTD/svg11.dtd">
<svg version="1.1" id="Layer_1" xmlns="http://www.w3.org/2000/svg" xmlns:xlink="http://www.w3.org/1999/xlink" x="0px" y="0px"
	 width="47.51px" height="43.333px" viewBox="-0.151 -0.232 47.51 43.333" enable-background="new -0.151 -0.232 47.51 43.333"
	 xml:space="preserve">
<g id="lIRzC4.tif">
	<g>
		<path fill="#5C5C5C" stroke="#5C5C5C" stroke-width="0.5" stroke-miterlimit="10" d="M23.548,26.945
			c-0.278-0.125-0.519-0.207-0.736-0.334C15.511,22.338,8.21,18.066,0.92,13.771c-0.29-0.172-0.605-0.551-0.645-0.872
			c-0.027-0.216,0.368-0.587,0.646-0.738C8.305,8.133,15.693,4.116,23.1,0.14c0.369-0.199,0.997-0.181,1.371,0.022
			c7.277,3.953,14.537,7.944,21.791,11.95c0.326,0.18,0.783,0.587,0.765,0.856c-0.021,0.32-0.442,0.701-0.772,0.894
			c-7.196,4.193-14.404,8.366-21.612,12.537C24.289,26.604,23.911,26.765,23.548,26.945z M44.776,12.951
			c-0.4-0.274-0.642-0.473-0.909-0.618C37.444,8.818,31.013,5.316,24.595,1.789c-0.562-0.309-1.007-0.317-1.579-0.007
			C16.521,5.303,10.014,8.794,3.511,12.299c-0.288,0.156-0.551,0.364-0.979,0.649c0.46,0.297,0.742,0.494,1.035,0.667
			c6.323,3.724,12.651,7.434,18.959,11.184c0.717,0.428,1.264,0.445,1.994,0.018c6.411-3.76,12.845-7.476,19.27-11.208
			C44.08,13.44,44.351,13.235,44.776,12.951z"/>
		<path fill="#5C5C5C" stroke="#5C5C5C" stroke-width="0.5" stroke-miterlimit="10" d="M44.561,20.474
			c-1.33-0.726-2.437-1.33-3.582-1.956c0.769-0.827,1.451-0.959,2.396-0.404c1.057,0.622,1.856,1.001,2.768,1.536
			c0.881,0.517,0.89,1.099,0.025,1.604c-7.329,4.286-14.666,8.557-21.991,12.849c-0.617,0.36-1.148,0.368-1.771,0
			C15.203,29.85,7.99,25.622,0.79,21.363c-0.313-0.185-0.706-0.51-0.705-0.898c0-0.312,0.439-0.678,0.761-0.871
			c0.935-0.559,1.906-1.059,2.854-1.578c1.059-0.58,1.795-0.225,2.402,0.354c-1.275,0.687-2.496,1.345-3.892,2.098
			c0.433,0.306,0.674,0.503,0.936,0.658c6.458,3.811,12.924,7.61,19.372,11.439c0.545,0.324,0.939,0.283,1.466-0.023
			c6.559-3.826,13.129-7.627,19.693-11.438C43.917,20.963,44.135,20.779,44.561,20.474z"/>
		<path fill="#5C5C5C" stroke="#5C5C5C" stroke-width="0.5" stroke-miterlimit="10" d="M44.543,28.839
			c-1.205-0.646-2.238-1.196-3.323-1.776c0.773-0.687,1.412-0.972,2.391-0.392c0.887,0.523,1.644,0.848,2.438,1.326
			c0.294,0.176,0.692,0.561,0.676,0.82c-0.022,0.34-0.069,0.604-0.654,0.954c-3.848,2.312-7.745,4.522-11.626,6.771
			c-3.436,1.99-6.88,3.965-10.307,5.975c-0.584,0.342-1.054,0.371-1.657,0.014c-7.17-4.24-14.355-8.453-21.536-12.673
			c-0.167-0.099-0.333-0.194-0.487-0.312c-0.618-0.461-0.615-1.033,0.043-1.385c1.156-0.617,2.303-1.285,3.516-1.73
			c0.477-0.176,1.02-0.042,1.913,0.482c-0.093,0.1-0.431,0.236-0.228,0.133c-1.116,0.563-2.232,1.125-3.527,1.779
			c0.383,0.279,0.591,0.461,0.822,0.598c6.457,3.811,12.918,7.611,19.37,11.432c0.577,0.342,1.048,0.404,1.659,0.048
			c6.611-3.86,13.236-7.69,19.856-11.532C44.063,29.266,44.217,29.104,44.543,28.839z"/>
	</g>
</g>
</svg>
