<?xml version="1.0" encoding="utf-8"?>
<!-- Generator: Adobe Illustrator 16.0.0, SVG Export Plug-In . SVG Version: 6.00 Build 0)  -->
<!DOCTYPE svg PUBLIC "-//W3C//DTD SVG 1.1//EN" "http://www.w3.org/Graphics/SVG/1.1/DTD/svg11.dtd">
<svg version="1.1" id="Layer_1" xmlns="http://www.w3.org/2000/svg" xmlns:xlink="http://www.w3.org/1999/xlink" x="0px" y="0px"
	 width="50.636px" height="41.786px" viewBox="0 0 50.636 41.786" enable-background="new 0 0 50.636 41.786" xml:space="preserve">
<g id="lIRzC4.tif">
	<g>
		<path fill-rule="evenodd" clip-rule="evenodd" d="M25.354,26.945c-0.299-0.125-0.558-0.207-0.792-0.334
			c-7.861-4.272-15.722-8.545-23.571-12.84c-0.313-0.172-0.651-0.551-0.694-0.872c-0.03-0.216,0.396-0.587,0.695-0.738
			c7.95-4.028,15.905-8.045,23.88-12.021c0.397-0.199,1.073-0.181,1.475,0.022c7.836,3.953,15.653,7.944,23.463,11.95
			c0.351,0.18,0.843,0.587,0.824,0.856c-0.024,0.32-0.477,0.701-0.832,0.894c-7.749,4.193-15.509,8.366-23.27,12.537
			C26.152,26.604,25.746,26.765,25.354,26.945z M48.211,12.951c-0.431-0.274-0.691-0.473-0.979-0.618
			C40.316,8.818,33.392,5.316,26.482,1.789c-0.605-0.309-1.084-0.317-1.7-0.007c-6.993,3.521-14,7.012-21.001,10.517
			c-0.311,0.156-0.594,0.364-1.054,0.649c0.495,0.297,0.799,0.494,1.115,0.667c6.807,3.724,13.621,7.434,20.413,11.185
			c0.772,0.427,1.361,0.444,2.146,0.017c6.903-3.76,13.83-7.476,20.748-11.208C47.461,13.44,47.754,13.235,48.211,12.951z"/>
		<path fill-rule="evenodd" clip-rule="evenodd" d="M47.979,20.474c-1.431-0.726-2.623-1.33-3.856-1.956
			c0.827-0.827,1.562-0.959,2.579-0.404c1.138,0.622,1.999,1.001,2.98,1.536c0.949,0.517,0.957,1.099,0.028,1.604
			c-7.892,4.285-15.791,8.557-23.679,12.849c-0.664,0.361-1.236,0.368-1.906,0C16.37,29.85,8.602,25.621,0.85,21.363
			c-0.337-0.185-0.759-0.51-0.758-0.898c0-0.312,0.472-0.678,0.819-0.871c1.007-0.559,2.052-1.059,3.073-1.578
			c1.141-0.58,1.933-0.225,2.587,0.354c-1.373,0.687-2.687,1.345-4.19,2.098c0.466,0.306,0.725,0.503,1.007,0.658
			c6.955,3.811,13.916,7.61,20.859,11.439c0.587,0.324,1.012,0.283,1.578-0.023c7.061-3.827,14.136-7.627,21.204-11.439
			C47.286,20.963,47.52,20.779,47.979,20.474z"/>
		<path fill-rule="evenodd" clip-rule="evenodd" d="M47.96,27.838c-1.298-0.645-2.41-1.196-3.578-1.776
			c0.833-0.686,1.52-0.972,2.574-0.392c0.954,0.524,1.769,0.848,2.625,1.326c0.316,0.177,0.746,0.561,0.727,0.821
			c-0.024,0.339-0.074,0.603-0.704,0.954c-4.142,2.312-8.34,4.522-12.517,6.77c-3.7,1.991-7.409,3.965-11.098,5.975
			c-0.629,0.342-1.135,0.371-1.784,0.014c-7.721-4.24-15.457-8.453-23.189-12.673c-0.179-0.098-0.358-0.195-0.524-0.311
			c-0.665-0.462-0.662-1.034,0.047-1.386c1.244-0.617,2.479-1.284,3.785-1.73c0.514-0.176,1.098-0.042,2.06,0.483
			c-0.1,0.099-0.464,0.236-0.246,0.133c-1.202,0.563-2.403,1.125-3.797,1.778c0.412,0.28,0.635,0.462,0.884,0.598
			c6.952,3.811,13.91,7.611,20.856,11.432c0.621,0.342,1.128,0.405,1.786,0.048c7.118-3.86,14.252-7.69,21.38-11.533
			C47.443,28.265,47.608,28.103,47.96,27.838z"/>
	</g>
</g>
</svg>
