<?xml version="1.0" encoding="utf-8"?>
<!-- Generator: Adobe Illustrator 16.0.0, SVG Export Plug-In . SVG Version: 6.00 Build 0)  -->
<!DOCTYPE svg PUBLIC "-//W3C//DTD SVG 1.1//EN" "http://www.w3.org/Graphics/SVG/1.1/DTD/svg11.dtd">
<svg version="1.1" id="Layer_1" xmlns="http://www.w3.org/2000/svg" xmlns:xlink="http://www.w3.org/1999/xlink" x="0px" y="0px"
	 width="13.127px" height="14.583px" viewBox="0 0 13.127 14.583" enable-background="new 0 0 13.127 14.583" xml:space="preserve">
<g id="l7BMAR.tif">
	<g>
		<path fill="#556471" d="M1.214,13.094c0-0.338,0-0.586,0-0.834c0-3.062-0.001-6.126,0.001-9.19c0-0.414-0.021-0.833-0.558-0.854
			C0.085,2.195,0.013,2.625,0.002,3.07c-0.003,0.138-0.001,0.276-0.001,0.415c0,3.086,0,6.174,0,9.26
			c0,1.322,0.219,1.547,1.514,1.547c2.741,0.002,5.482,0.002,8.224,0c0.207,0,0.453,0.053,0.611-0.039
			c0.207-0.121,0.502-0.385,0.479-0.545c-0.034-0.222-0.301-0.453-0.523-0.584c-0.154-0.092-0.404-0.027-0.611-0.027
			c-2.557-0.001-5.113-0.001-7.67-0.001C1.777,13.094,1.531,13.094,1.214,13.094z"/>
		<g>
			<path fill="none" d="M3.156,11.167c2.884,0,5.73,0,8.623,0c0-3.332,0-6.608,0-9.866c-2.914,0-5.774,0-8.623,0
				C3.156,4.617,3.156,7.877,3.156,11.167z"/>
			<path fill="#556471" d="M11.903,0.005c-2.949-0.006-5.898-0.006-8.846,0C2.231,0.007,1.881,0.359,1.879,1.177
				C1.874,2.859,1.878,4.541,1.878,6.222c0,1.682-0.003,3.362,0.001,5.045c0.002,0.858,0.308,1.172,1.15,1.173
				c2.949,0.003,5.897,0.002,8.846,0c0.843-0.001,1.19-0.326,1.19-1.154c0.008-3.363,0.006-6.727,0-10.09
				C13.063,0.355,12.724,0.007,11.903,0.005z M11.778,11.167c-2.893,0-5.738,0-8.623,0c0-3.289,0-6.549,0-9.866
				c2.848,0,5.708,0,8.623,0C11.778,4.558,11.778,7.834,11.778,11.167z"/>
		</g>
		<path fill="#556471" d="M1.214,13.094c0.317,0,0.563,0,0.809,0c2.557,0,5.115,0,7.671,0.001c0.207,0,0.432,0.021,0.611,0.026
			c0.274,0.01,0.471,0.207,0.522,0.586c0.022,0.158-0.075,0.42-0.283,0.541c-0.157,0.092-0.601,0.041-0.808,0.041
			c-2.74,0.002-5.481,0.002-8.223,0c-1.295,0-1.513-0.225-1.514-1.547c0-3.086,0-6.174,0-9.26c0-0.138-0.002-0.276,0.001-0.415
			c0.011-0.444,0.083-0.875,0.655-0.853c0.537,0.021,0.559,0.44,0.558,0.854C1.211,6.132,1.213,9.196,1.213,12.26
			C1.214,12.508,1.214,12.756,1.214,13.094z"/>
	</g>
</g>
</svg>
