<?xml version="1.0" encoding="utf-8"?>
<!-- Generator: Adobe Illustrator 16.0.0, SVG Export Plug-In . SVG Version: 6.00 Build 0)  -->
<!DOCTYPE svg PUBLIC "-//W3C//DTD SVG 1.1//EN" "http://www.w3.org/Graphics/SVG/1.1/DTD/svg11.dtd">
<svg version="1.1" id="Layer_1" xmlns="http://www.w3.org/2000/svg" xmlns:xlink="http://www.w3.org/1999/xlink" x="0px" y="0px"
	 width="31.562px" height="36.562px" viewBox="-0.312 -0.345 31.562 36.562" enable-background="new -0.312 -0.345 31.562 36.562"
	 xml:space="preserve">
<g id="zizqhy.tif">
	<g>
		<path fill="#5C5C5C" stroke="#5C5C5C" stroke-width="0.5" stroke-miterlimit="10" d="M31,19.02
			c-0.295,1.487-0.729,2.92-1.682,4.141c-1.828,2.344-4.237,3.506-7.203,3.521c-1.613,0.007-3.227,0.001-4.84,0.002
			c-0.269,0-0.535,0-0.825,0c-0.419,2.849-0.843,5.612-1.22,8.382c-0.084,0.622-0.351,0.873-0.953,0.871
			c-2.11-0.008-4.22,0.006-6.33-0.007c-0.855-0.006-1.048-0.281-0.887-1.12c0.176-0.918,0.333-1.842,0.515-2.854
			c-1.375,0-2.685,0-3.995,0c-0.844,0-1.691,0.04-2.531-0.019c-0.357-0.025-0.7-0.258-1.05-0.396c0-0.199,0-0.396,0-0.596
			c0.042-0.138,0.104-0.272,0.124-0.413c0.503-3.554,1-7.109,1.501-10.664c0.888-6.3,1.787-12.599,2.651-18.902
			c0.093-0.681,0.35-0.952,1.03-0.95C9.35,0.03,13.397-0.038,17.439,0.039c6.004,0.114,10.373,4.825,10.193,10.843
			c-0.009,0.286,0.174,0.658,0.389,0.855c1.01,0.916,1.836,1.958,2.322,3.23c0.279,0.731,0.44,1.509,0.654,2.265
			C31,17.827,31,18.423,31,19.02z M5.554,1.303c-1.38,9.801-2.749,19.524-4.125,29.298c2.154,0,4.207,0,6.287,0
			c0.052-0.192,0.124-0.376,0.15-0.567c0.461-3.287,0.924-6.573,1.367-9.862c0.08-0.598,0.337-0.883,0.961-0.864
			c0.918,0.025,1.837,0.021,2.756,0.003c1.982-0.038,3.987,0.086,5.942-0.177c4.905-0.659,8.326-5.753,7.262-10.588
			c-0.95-4.312-4.549-7.229-8.959-7.24C13.57,1.295,9.945,1.303,6.32,1.303C6.078,1.303,5.836,1.303,5.554,1.303z M27.354,13.009
			c-0.026,0.033-0.065,0.062-0.08,0.101c-0.058,0.163-0.1,0.332-0.162,0.493c-1.532,3.967-4.34,6.438-8.605,6.896
			c-2.357,0.253-4.756,0.11-7.136,0.145c-0.287,0.004-0.575,0.001-0.856,0.001c-0.678,4.724-1.34,9.335-2.005,13.964
			c1.86,0,3.637,0,5.45,0c0.413-2.8,0.84-5.562,1.212-8.329c0.088-0.659,0.347-0.894,0.996-0.884
			c1.96,0.024,3.921,0.026,5.882,0.004c2.436-0.029,4.488-0.916,6.055-2.823C30.454,19.709,30.098,15.157,27.354,13.009z"/>
	</g>
</g>
<path fill="none" stroke="#5C5C5C" stroke-width="1.5532" stroke-miterlimit="10" d="M10.67,14.05
	c0.606-2.501,1.208-4.986,1.812-7.477c0.086-0.005,0.156-0.013,0.225-0.013c1.308-0.001,2.617-0.004,3.926,0.001
	c1.126,0.005,2.036,0.411,2.616,1.333c0.479,0.763,0.495,1.585,0.257,2.426c-0.4,1.414-1.304,2.458-2.65,3.184
	c-0.717,0.386-1.498,0.563-2.314,0.574c-1.22,0.015-2.441,0.004-3.662,0.003C10.82,14.081,10.763,14.064,10.67,14.05z"/>
</svg>
