<?xml version="1.0" encoding="utf-8"?>
<!-- Generator: Adobe Illustrator 16.0.0, SVG Export Plug-In . SVG Version: 6.00 Build 0)  -->
<!DOCTYPE svg PUBLIC "-//W3C//DTD SVG 1.1//EN" "http://www.w3.org/Graphics/SVG/1.1/DTD/svg11.dtd">
<svg version="1.1" id="Layer_1" xmlns="http://www.w3.org/2000/svg" xmlns:xlink="http://www.w3.org/1999/xlink" x="0px" y="0px"
	 width="27.648px" height="27.719px" viewBox="0 0 27.648 27.719" enable-background="new 0 0 27.648 27.719" xml:space="preserve">
<g id="OAYf0q.tif">
	<g>
		<path fill-rule="evenodd" clip-rule="evenodd" d="M0,25.792c0.037-0.253,0.08-0.506,0.109-0.761
			c0.089-0.784,0.269-1.528,0.752-2.184c0.31-0.419,0.739-0.654,1.165-0.905C2.505,21.66,3,21.404,3.479,21.12
			c0.121-0.071,0.183-0.084,0.265,0.039c0.16,0.239,0.339,0.465,0.494,0.707c0.026,0.041-0.002,0.167-0.045,0.196
			c-0.273,0.188-0.553,0.366-0.839,0.536c-0.448,0.265-0.926,0.486-1.347,0.789c-0.468,0.338-0.588,0.895-0.676,1.428
			c-0.09,0.542-0.119,1.095-0.173,1.643c-0.003,0.032,0.016,0.067,0.027,0.107c0.521-0.057,1.034-0.093,1.542-0.171
			c0.637-0.097,1.265-0.247,1.706-0.773c0.16-0.191,0.286-0.415,0.406-0.634c0.284-0.52,0.555-1.047,0.85-1.605
			c0.367,0.249,0.699,0.473,0.999,0.676c-0.273,0.517-0.538,0.996-0.783,1.484c-0.31,0.619-0.689,1.185-1.333,1.477
			c-0.492,0.223-1.017,0.389-1.54,0.525c-0.393,0.103-0.809,0.12-1.214,0.175c-0.605,0-1.211,0-1.817,0C0,27.077,0,26.434,0,25.792z
			"/>
		<path fill-rule="evenodd" clip-rule="evenodd" d="M11.535,22.231c-0.276,0.279-0.559,0.378-0.908,0.268
			c-0.065-0.021-0.167,0.048-0.243,0.092c-0.582,0.339-1.166,0.674-1.738,1.028c-0.491,0.303-0.961,0.209-1.39-0.083
			c-0.46-0.315-0.916-0.652-1.312-1.042c-0.559-0.549-1.091-1.133-1.577-1.749c-0.223-0.283-0.355-0.665-0.433-1.023
			c-0.043-0.196,0.076-0.457,0.186-0.653c0.342-0.61,0.715-1.204,1.073-1.806c0.026-0.043,0.041-0.102,0.036-0.153
			c-0.042-0.495-0.036-0.53,0.229-0.935c-0.603-0.154-1.197-0.309-1.793-0.459c-0.521-0.132-1.044-0.252-1.563-0.392
			c-0.38-0.102-0.597-0.627-0.219-1.076c0.788-0.934,1.575-1.868,2.359-2.803c0.122-0.145,0.204-0.342,0.354-0.438
			c0.193-0.124,0.436-0.234,0.658-0.237c1.468-0.021,2.936-0.012,4.404-0.009c0.154,0,0.248-0.035,0.358-0.17
			c0.53-0.654,1.079-1.293,1.636-1.924c0.932-1.055,1.886-2.091,2.812-3.151c1.114-1.275,2.416-2.306,3.899-3.117
			c1.667-0.912,3.439-1.529,5.303-1.878c0.849-0.159,1.706-0.271,2.562-0.385c0.475-0.063,0.955-0.084,1.416-0.122
			c0,0.428,0.021,0.834-0.006,1.237c-0.026,0.395-0.087,0.788-0.16,1.178c-0.173,0.925-0.345,1.852-0.549,2.771
			c-0.286,1.294-0.766,2.523-1.364,3.702c-0.584,1.152-1.269,2.243-2.181,3.172c-0.613,0.625-1.217,1.26-1.86,1.853
			c-0.848,0.779-1.726,1.525-2.6,2.275c-0.618,0.529-1.253,1.037-1.872,1.566c-0.064,0.056-0.085,0.191-0.085,0.29
			c-0.005,1.45-0.006,2.899-0.001,4.349c0.001,0.333-0.099,0.595-0.369,0.815c-0.878,0.711-1.74,1.441-2.611,2.162
			c-0.243,0.2-0.472,0.434-0.748,0.574c-0.406,0.206-0.748-0.02-0.845-0.399C12.109,24.465,11.828,23.372,11.535,22.231z
			 M26.465,1.286C26.16,1.31,25.914,1.305,25.677,1.35c-0.908,0.172-1.816,0.344-2.717,0.548c-1.3,0.295-2.535,0.772-3.72,1.382
			c-1.59,0.82-2.946,1.927-4.116,3.278c-0.785,0.907-1.603,1.785-2.398,2.682c-0.476,0.535-0.947,1.074-1.403,1.626
			c-0.793,0.961-1.57,1.935-2.357,2.901c-0.735,0.904-1.477,1.803-2.209,2.708c-0.411,0.508-0.406,0.688-0.05,1.241
			c0.63,0.978,1.42,1.815,2.302,2.56c0.423,0.357,0.913,0.637,1.382,0.937c0.175,0.111,0.374,0.14,0.561-0.015
			c0.6-0.493,1.204-0.983,1.805-1.475c0.532-0.435,1.062-0.872,1.594-1.306c0.658-0.536,1.322-1.063,1.975-1.606
			c0.53-0.439,1.047-0.894,1.568-1.344c0.803-0.692,1.608-1.382,2.406-2.08c0.309-0.27,0.607-0.553,0.898-0.842
			c0.589-0.583,1.215-1.138,1.741-1.775c0.477-0.577,0.853-1.241,1.253-1.88c0.571-0.912,0.957-1.913,1.287-2.928
			c0.249-0.765,0.437-1.553,0.602-2.341C26.241,2.867,26.335,2.098,26.465,1.286z M15.749,18.844
			c-1.092,0.885-2.135,1.731-3.173,2.574c0.247,0.987,0.49,1.957,0.74,2.959c0.137-0.108,0.244-0.188,0.348-0.273
			c0.502-0.413,0.996-0.837,1.509-1.236c0.38-0.296,0.691-0.596,0.583-1.146c-0.048-0.248-0.008-0.513-0.008-0.77
			C15.749,20.267,15.749,19.581,15.749,18.844z M8.872,11.971c-0.122,0-0.2,0-0.277,0c-0.998,0-1.997,0.008-2.995-0.006
			c-0.216-0.003-0.339,0.094-0.458,0.237c-0.339,0.41-0.677,0.82-1.015,1.231c-0.256,0.311-0.51,0.623-0.793,0.968
			c1.02,0.255,1.996,0.499,2.968,0.742C7.152,14.091,7.996,13.051,8.872,11.971z M5.813,18.553c-0.204,0.341-0.384,0.671-0.593,0.98
			c-0.121,0.178-0.041,0.305,0.053,0.43c0.21,0.281,0.431,0.555,0.654,0.826c0.59,0.72,1.275,1.33,2.083,1.809
			c0.386-0.232,0.765-0.46,1.155-0.695C7.852,20.965,6.757,19.868,5.813,18.553z"/>
		<path fill-rule="evenodd" clip-rule="evenodd" d="M19.189,11.365c-1.438,0.117-3.015-1.225-2.84-3.075
			c0.134-1.421,1.247-2.595,2.813-2.583c1.65,0.013,2.821,1.181,2.85,2.84C22.041,10.065,20.823,11.398,19.189,11.365z
			 M20.814,8.523c0.036-0.848-0.781-1.599-1.565-1.625c-0.982-0.034-1.732,0.768-1.738,1.648c-0.006,0.886,0.771,1.656,1.637,1.662
			C20.057,10.215,20.857,9.448,20.814,8.523z"/>
	</g>
</g>
</svg>
