<?xml version="1.0" encoding="utf-8"?>
<!-- Generator: Adobe Illustrator 16.0.0, SVG Export Plug-In . SVG Version: 6.00 Build 0)  -->
<!DOCTYPE svg PUBLIC "-//W3C//DTD SVG 1.1//EN" "http://www.w3.org/Graphics/SVG/1.1/DTD/svg11.dtd">
<svg version="1.1" id="Layer_1" xmlns="http://www.w3.org/2000/svg" xmlns:xlink="http://www.w3.org/1999/xlink" x="0px" y="0px"
	 width="27.648px" height="27.719px" viewBox="0 0 27.648 27.719" enable-background="new 0 0 27.648 27.719" xml:space="preserve">
<path fill="#5C5C5C" d="M0.161,25.756c0.038-0.258,0.082-0.515,0.112-0.774c0.09-0.799,0.273-1.557,0.766-2.225
	c0.315-0.428,0.753-0.666,1.187-0.923c0.487-0.287,0.992-0.547,1.48-0.837c0.124-0.072,0.186-0.085,0.27,0.04
	c0.163,0.243,0.345,0.474,0.503,0.72c0.027,0.042-0.002,0.171-0.046,0.2c-0.278,0.191-0.563,0.372-0.854,0.545
	c-0.457,0.271-0.943,0.496-1.373,0.804c-0.477,0.345-0.599,0.912-0.688,1.455c-0.091,0.553-0.121,1.116-0.176,1.674
	c-0.003,0.033,0.016,0.068,0.028,0.108c0.53-0.058,1.053-0.094,1.57-0.173c0.649-0.1,1.289-0.253,1.738-0.788
	c0.163-0.195,0.292-0.423,0.413-0.646c0.29-0.529,0.566-1.066,0.866-1.635c0.374,0.254,0.712,0.482,1.018,0.689
	c-0.279,0.526-0.548,1.015-0.798,1.511c-0.315,0.631-0.703,1.207-1.358,1.506c-0.501,0.227-1.036,0.396-1.569,0.534
	c-0.4,0.104-0.824,0.122-1.236,0.178c-0.617,0-1.234,0-1.852,0C0.161,27.065,0.161,26.409,0.161,25.756z"/>
<path fill="#5C5C5C" d="M19.187,11.358c-1.438,0.117-3.016-1.225-2.84-3.075c0.134-1.421,1.247-2.595,2.812-2.583
	c1.65,0.013,2.821,1.181,2.851,2.84C22.039,10.058,20.821,11.391,19.187,11.358z M20.812,8.516c0.036-0.848-0.781-1.599-1.565-1.625
	c-0.981-0.034-1.731,0.768-1.737,1.648c-0.007,0.886,0.771,1.656,1.637,1.662C20.055,10.208,20.855,9.441,20.812,8.516z"/>
<path fill="#5C5C5C" d="M27.642,0.007c-0.47,0.038-0.959,0.06-1.442,0.124c-0.872,0.116-1.745,0.23-2.61,0.392
	c-1.899,0.356-3.703,0.984-5.401,1.913c-1.512,0.826-2.837,1.876-3.972,3.175c-0.943,1.08-1.915,2.135-2.864,3.209
	c-0.567,0.643-1.127,1.294-1.667,1.96c-0.112,0.138-0.208,0.173-0.365,0.173c-1.495-0.003-2.99-0.012-4.486,0.009
	c-0.226,0.003-0.473,0.115-0.669,0.241c-0.153,0.098-0.237,0.299-0.361,0.446c-0.799,0.953-1.601,1.904-2.403,2.856
	c-0.385,0.457-0.163,0.992,0.224,1.096c0.528,0.143,1.062,0.265,1.592,0.399c0.608,0.152,1.212,0.311,1.826,0.467
	c-0.27,0.413-0.275,0.449-0.233,0.952c0.083,0.803,0.595,1.471,0.595,1.471c0.961,1.34,2.077,2.457,3.414,3.412
	c0,0,0.681,0.584,1.489,0.607c0.501,0.008,0.644,0.011,0.925-0.273c0.298,1.163,0.585,2.275,0.875,3.39
	c0.099,0.387,0.446,0.617,0.86,0.407c0.282-0.143,0.514-0.381,0.762-0.585c0.887-0.734,1.765-1.478,2.66-2.201
	c0.274-0.225,0.376-0.491,0.375-0.831c-0.005-1.477-0.004-2.953,0.001-4.43c0-0.102,0.022-0.238,0.087-0.296
	c0.631-0.538,1.278-1.057,1.906-1.595c0.891-0.764,1.785-1.524,2.649-2.318c0.654-0.604,1.271-1.25,1.895-1.887
	c0.929-0.946,1.627-2.058,2.222-3.231c0.609-1.201,1.099-2.453,1.39-3.771c0.207-0.936,0.383-1.881,0.56-2.823
	c0.073-0.397,0.136-0.798,0.163-1.2C27.663,0.857,27.642,0.443,27.642,0.007z M26.05,3.682c-0.168,0.803-0.359,1.605-0.612,2.384
	C25.1,7.1,24.708,8.12,24.126,9.049c-0.408,0.65-0.791,1.327-1.276,1.915c-0.536,0.649-1.174,1.214-1.773,1.808
	c-0.297,0.294-0.6,0.583-0.915,0.858c-0.813,0.711-1.633,1.415-2.45,2.119c-0.531,0.458-1.058,0.922-1.598,1.368
	c-0.195,0.162-0.394,0.32-0.59,0.48l0.002,0.003v1.588c0,0.751,0,1.45-0.001,2.147c0,0.262-0.041,0.532,0.008,0.785
	c0.11,0.56-0.206,0.865-0.594,1.167c-0.522,0.407-1.026,0.839-1.537,1.259c-0.105,0.087-0.215,0.169-0.354,0.278
	c-0.255-1.021-0.502-2.01-0.754-3.015c-0.259-1.033-1.167-0.615-1.186-0.606c-0.157,0.127-0.313,0.255-0.469,0.383
	c-0.19,0.158-0.393,0.129-0.571,0.015c-0.478-0.305-0.977-0.591-1.408-0.954c-0.898-0.759-1.703-1.612-2.345-2.607
	c-0.362-0.563-0.367-0.747,0.051-1.265c0.293-0.793-0.464-1.356-0.464-1.356c-0.99-0.247-1.983-0.496-3.023-0.757
	c0.289-0.35,0.547-0.668,0.808-0.985c0.344-0.419,0.689-0.836,1.035-1.254c0.122-0.146,0.246-0.245,0.467-0.242
	c1.017,0.015,2.034,0.006,3.051,0.006c0.078,0,0.157,0,0.281,0l1.628-0.062l0.004,0.001c0.288-0.355,0.574-0.712,0.865-1.064
	c0.464-0.562,0.944-1.112,1.429-1.656c0.81-0.914,1.643-1.809,2.442-2.732c1.191-1.376,2.573-2.504,4.193-3.339
	c1.206-0.622,2.465-1.107,3.788-1.408c0.919-0.208,1.844-0.383,2.768-0.558c0.242-0.046,0.493-0.041,0.803-0.065
	C26.308,2.13,26.213,2.914,26.05,3.682z"/>
</svg>
