<?xml version="1.0" encoding="utf-8"?>
<!-- Generator: Adobe Illustrator 16.0.0, SVG Export Plug-In . SVG Version: 6.00 Build 0)  -->
<!DOCTYPE svg PUBLIC "-//W3C//DTD SVG 1.1//EN" "http://www.w3.org/Graphics/SVG/1.1/DTD/svg11.dtd">
<svg version="1.1" id="Layer_1" xmlns="http://www.w3.org/2000/svg" xmlns:xlink="http://www.w3.org/1999/xlink" x="0px" y="0px"
	 width="14.76px" height="14.273px" viewBox="-0.109 0.854 14.76 14.273" enable-background="new -0.109 0.854 14.76 14.273"
	 xml:space="preserve">
<g id="w4zf4a.tif">
	<g>
		<path fill-rule="evenodd" clip-rule="evenodd" fill="#F2F2F2" d="M14.203,12.637c-1.304-1.122-2.582-2.272-3.884-3.423
			c0.71-1.273,0.926-2.649,0.574-4.096c-0.354-1.454-1.172-2.595-2.435-3.394C6.171,0.277,3.193,0.67,1.381,2.638
			c-1.823,1.978-1.984,4.955-0.418,7.104c1.6,2.194,4.869,3.093,7.429,1.468c0.227,0.175,0.425,0.322,0.617,0.478
			c0.106,0.086,0.205,0.18,0.308,0.271c1.045,0.927,2.091,1.853,3.139,2.778c0.5,0.44,1.147,0.401,1.6-0.091
			c0.082-0.089,0.157-0.185,0.246-0.267C14.801,13.91,14.765,13.12,14.203,12.637z M5.47,9.877c-1.908-0.003-3.439-1.54-3.437-3.451
			c0.001-1.89,1.553-3.436,3.447-3.432c1.884,0.003,3.432,1.559,3.435,3.45C8.917,8.331,7.363,9.879,5.47,9.877z"/>
	</g>
</g>
</svg>
