<?xml version="1.0" encoding="utf-8"?>
<!-- Generator: Adobe Illustrator 16.0.0, SVG Export Plug-In . SVG Version: 6.00 Build 0)  -->
<!DOCTYPE svg PUBLIC "-//W3C//DTD SVG 1.1//EN" "http://www.w3.org/Graphics/SVG/1.1/DTD/svg11.dtd">
<svg version="1.1" id="Layer_1" xmlns="http://www.w3.org/2000/svg" xmlns:xlink="http://www.w3.org/1999/xlink" x="0px" y="0px"
	 width="20.333px" height="27.719px" viewBox="0 0 20.333 27.719" enable-background="new 0 0 20.333 27.719" xml:space="preserve">
<image overflow="visible" width="234" height="293" xlink:href="../../../../Screen Shot 2018-03-20 at 3.57.43 PM.png"  transform="matrix(1 0 0 1 -337 -134)">
</image>
<g>
	<path d="M18.176,13.14c0,1.16-0.145,2.26-0.436,3.301c-0.291,1.04-0.75,1.956-1.379,2.745c-0.63,0.79-1.455,1.419-2.476,1.89
		c-1.02,0.47-2.259,0.704-3.72,0.704c-1.459,0-2.7-0.234-3.72-0.704c-1.02-0.471-1.844-1.1-2.475-1.89
		c-0.629-0.789-1.09-1.706-1.38-2.745C2.301,15.4,2.156,14.3,2.156,13.14V0h2.52v12.781c0,0.858,0.09,1.688,0.271,2.489
		c0.18,0.8,0.479,1.511,0.899,2.129c0.42,0.621,0.979,1.116,1.68,1.486c0.699,0.369,1.58,0.554,2.64,0.554
		c1.06,0,1.94-0.185,2.64-0.554c0.701-0.37,1.261-0.866,1.681-1.486c0.42-0.619,0.72-1.329,0.899-2.129s0.27-1.63,0.27-2.489V0
		h2.521V13.14z"/>
</g>
<rect y="25.346" width="20.333" height="2.373"/>
</svg>
