<?xml version="1.0" encoding="utf-8"?>
<!-- Generator: Adobe Illustrator 16.0.0, SVG Export Plug-In . SVG Version: 6.00 Build 0)  -->
<!DOCTYPE svg PUBLIC "-//W3C//DTD SVG 1.1//EN" "http://www.w3.org/Graphics/SVG/1.1/DTD/svg11.dtd">
<svg version="1.1" id="Layer_1" xmlns="http://www.w3.org/2000/svg" xmlns:xlink="http://www.w3.org/1999/xlink" x="0px" y="0px"
	 width="10.697px" height="15.083px" viewBox="0 0 10.697 15.083" enable-background="new 0 0 10.697 15.083" xml:space="preserve">
<g>
	<path fill="#556471" stroke="#556471" stroke-width="0.5" stroke-miterlimit="10" d="M9.562,7.147c0,0.609-0.075,1.189-0.229,1.736
		c-0.154,0.548-0.395,1.028-0.727,1.443c-0.331,0.417-0.765,0.748-1.302,0.996c-0.537,0.245-1.188,0.368-1.958,0.368
		c-0.767,0-1.418-0.123-1.956-0.368c-0.536-0.248-0.97-0.579-1.302-0.996C1.757,9.912,1.514,9.431,1.363,8.883
		C1.211,8.336,1.135,7.756,1.135,7.147V0.234h1.324v6.724c0,0.451,0.049,0.888,0.144,1.309s0.252,0.795,0.474,1.12
		c0.22,0.326,0.514,0.588,0.883,0.782c0.369,0.193,0.832,0.29,1.39,0.29c0.557,0,1.021-0.097,1.388-0.29
		c0.369-0.194,0.665-0.456,0.885-0.782C7.843,9.062,8,8.688,8.094,8.267C8.188,7.846,8.237,7.41,8.237,6.958V0.234h1.324V7.147
		L9.562,7.147z"/>
</g>
<rect y="13.604" fill="#556471" width="10.697" height="1.479"/>
</svg>
