<?xml version="1.0" encoding="utf-8"?>
<!-- Generator: Adobe Illustrator 16.0.0, SVG Export Plug-In . SVG Version: 6.00 Build 0)  -->
<!DOCTYPE svg PUBLIC "-//W3C//DTD SVG 1.1//EN" "http://www.w3.org/Graphics/SVG/1.1/DTD/svg11.dtd">
<svg version="1.1" id="Layer_1" xmlns="http://www.w3.org/2000/svg" xmlns:xlink="http://www.w3.org/1999/xlink" x="0px" y="0px"
	 width="223.75px" height="6.75px" viewBox="0 0 223.75 6.75" enable-background="new 0 0 223.75 6.75" xml:space="preserve">
<path fill="#EBEBEB" d="M223.75,3.375c0,1.864-1.511,3.375-3.375,3.375h-217C1.511,6.75,0,5.239,0,3.375l0,0
	C0,1.511,1.511,0,3.375,0h217C222.239,0,223.75,1.511,223.75,3.375L223.75,3.375z"/>
<path fill="#F4B453" d="M168.375,6.75h-165C1.511,6.75,0,5.239,0,3.375l0,0C0,1.511,1.511,0,3.375,0h164.75"/>
<polygon fill="#F5C06B" points="16.667,0 22.833,6.75 31,6.75 25,0 "/>
<polygon fill="#F5C06B" points="3.001,0 9.167,6.75 16,6.75 10,0 "/>
<polygon fill="#F5C06B" points="32.667,0 38.833,6.75 47,6.75 41,0 "/>
<polygon fill="#F5C06B" points="48.833,0 55,6.75 63.167,6.75 57.167,0 "/>
<polygon fill="#F5C06B" points="64.667,0 70.833,6.75 79,6.75 73,0 "/>
<polygon fill="#F5C06B" points="80.667,0 86.833,6.75 95,6.75 89,0 "/>
<polygon fill="#F5C06B" points="96.667,0 102.833,6.75 111,6.75 105,0 "/>
<polygon fill="#F5C06B" points="113,0 119.167,6.75 127.333,6.75 121.333,0 "/>
<polygon fill="#F5C06B" points="129,0 135.167,6.75 143.333,6.75 137.333,0 "/>
<polygon fill="#F5C06B" points="145.083,0 151.25,6.75 159.416,6.75 153.416,0 "/>
<polygon fill="#F5C06B" points="160.834,0 167,6.75 168.375,6.75 168.125,0 "/>
</svg>
