<?xml version="1.0" encoding="utf-8"?>
<!-- Generator: Adobe Illustrator 16.0.0, SVG Export Plug-In . SVG Version: 6.00 Build 0)  -->
<!DOCTYPE svg PUBLIC "-//W3C//DTD SVG 1.1//EN" "http://www.w3.org/Graphics/SVG/1.1/DTD/svg11.dtd">
<svg version="1.1" id="Layer_1" xmlns="http://www.w3.org/2000/svg" xmlns:xlink="http://www.w3.org/1999/xlink" x="0px" y="0px"
	 width="240.202px" height="241.51px" viewBox="-78.952 -111.551 240.202 241.51"
	 enable-background="new -78.952 -111.551 240.202 241.51" xml:space="preserve">
<g id="kX6k5m.tif">
	<g>
		<path fill="#FFFFFF" d="M16.501,0.001c-4.926,0-9.85-0.001-14.774,0c-1.165,0-1.724,0.561-1.724,1.734
			C0,4.977-0.004,8.219,0.011,11.463c0.001,0.366,0.066,0.754,0.2,1.094c0.19,0.488,0.625,0.72,1.141,0.773
			c0.187,0.019,0.375,0.013,0.564,0.013c4.829,0,9.66,0,14.49,0c1.078,0,1.72-0.192,1.72-1.147V1.054
			C18.125,0.213,17.47,0.001,16.501,0.001z M16.578,2.445c-0.062,0.092-0.125,0.183-0.21,0.254c-0.045,0.04-0.277,0.221-0.354,0.282
			c-2.291,1.783-4.556,3.6-6.869,5.436C8.879,8.206,8.61,7.992,8.34,7.779C7.012,6.727,5.687,5.671,4.356,4.622
			C4.288,4.589,4.231,4.542,4.186,4.488C3.535,3.975,2.887,3.46,2.231,2.956c-0.035-0.027-0.26-0.197-0.337-0.273
			C1.89,2.678,1.887,2.672,1.882,2.668c-0.376-0.285-0.27-1.036,0.333-1.036c0.166,0,0.292,0.062,0.383,0.151
			c0.038,0.023,4.465,3.471,6.541,5.065c0.702-0.539,1.405-1.074,2.105-1.612c1.402-1.078,4.372-3.404,4.343-3.371
			c0.229-0.21,0.501-0.373,0.785-0.207c0.022,0.014,0.045,0.031,0.066,0.047c0,0,0.002,0,0.004-0.001
			c0,0.002,0.002,0.004,0.002,0.007C16.65,1.883,16.74,2.212,16.578,2.445z"/>
	</g>
</g>
<path fill="#2EB99C" d="M38.754-111.551c-47.952,0-89.468,27.552-109.582,67.688l31.994,14.856
	C-24.45-57.69,3.317-77.873,37.598-77.615c53.966,0.406,85.341,39.27,87.594,87.594c0.56,12-3.812,28.624-3.815,28.75l33.588,11.057
	c4.077-12.204,6.286-25.264,6.286-38.84C161.25-56.708,106.406-111.551,38.754-111.551z"/>
<path fill="#ECEFF2" d="M36.524,98.639c-47.713-1.333-85.982-40.429-85.982-88.465c0-13.053,2.826-25.444,7.898-36.599
	c0,0-0.06,0.065,0,0l-25.843-11.643c-7.762,15.524-11.55,32.156-11.55,50.692c0,63.789,51.711,115.5,115.5,115.5L36.524,98.639z"/>
<path fill="#2CBAD9" d="M119.917,41.83C108.412,74.554,76.22,98.442,39.686,98.958l0.503,31c50.427,0,93.498-33.287,108.542-78.666
	L119.917,41.83z"/>
<path fill="none" stroke="#2EB99C" stroke-width="3" stroke-miterlimit="10" d="M-35.636-25.782
	c13.066-27.911,41.223-47.224,73.848-47.224c45.079,0,81.626,36.872,81.626,82.354c0,9.855-1.717,19.307-4.863,28.066"/>
<g>
	<path d="M-33.925,5.79h-2.344V-5.585h2.344V5.79z"/>
	<path d="M-28.878-4.742v2.078h1.445v1.656h-1.445v4.219c0,0.312,0.06,0.537,0.18,0.672c0.12,0.136,0.349,0.203,0.688,0.203
		c0.25,0,0.472-0.018,0.664-0.055v1.711c-0.442,0.135-0.898,0.203-1.367,0.203c-1.583,0-2.391-0.799-2.422-2.398v-4.555h-1.234
		v-1.656h1.234v-2.078H-28.878z"/>
	<path d="M-20.957,5.79c-0.104-0.203-0.18-0.456-0.227-0.758c-0.547,0.609-1.258,0.914-2.133,0.914
		c-0.828,0-1.515-0.239-2.059-0.719c-0.544-0.479-0.816-1.083-0.816-1.812c0-0.896,0.332-1.583,0.996-2.062
		c0.664-0.479,1.624-0.721,2.879-0.727h1.039V0.141c0-0.391-0.101-0.703-0.301-0.938s-0.517-0.352-0.949-0.352
		c-0.38,0-0.679,0.091-0.895,0.273c-0.216,0.183-0.324,0.433-0.324,0.75h-2.258c0-0.489,0.151-0.942,0.453-1.359
		c0.302-0.417,0.729-0.743,1.281-0.98c0.552-0.237,1.172-0.355,1.859-0.355c1.042,0,1.868,0.262,2.48,0.785s0.918,1.259,0.918,2.207
		v3.664c0.005,0.802,0.117,1.409,0.336,1.82V5.79H-20.957z M-22.824,4.219c0.333,0,0.641-0.074,0.922-0.223s0.489-0.348,0.625-0.598
		V1.946h-0.844c-1.13,0-1.731,0.391-1.805,1.172l-0.008,0.133c0,0.281,0.099,0.513,0.297,0.695
		C-23.438,4.128-23.168,4.219-22.824,4.219z"/>
	<path d="M-14.574,5.79h-2.266v-12h2.266V5.79z"/>
	<path d="M-12.41-4.851c0-0.338,0.113-0.617,0.34-0.836s0.535-0.328,0.926-0.328c0.386,0,0.692,0.109,0.922,0.328
		s0.344,0.498,0.344,0.836c0,0.344-0.116,0.625-0.348,0.844s-0.538,0.328-0.918,0.328s-0.687-0.109-0.918-0.328
		S-12.41-4.507-12.41-4.851z M-10.012,5.79h-2.266v-8.453h2.266V5.79z"/>
	<path d="M-2.935,5.79c-0.104-0.203-0.18-0.456-0.227-0.758c-0.547,0.609-1.258,0.914-2.133,0.914c-0.828,0-1.515-0.239-2.059-0.719
		c-0.544-0.479-0.816-1.083-0.816-1.812c0-0.896,0.332-1.583,0.996-2.062c0.664-0.479,1.624-0.721,2.879-0.727h1.039V0.141
		c0-0.391-0.101-0.703-0.301-0.938s-0.517-0.352-0.949-0.352c-0.38,0-0.679,0.091-0.895,0.273c-0.216,0.183-0.324,0.433-0.324,0.75
		h-2.258c0-0.489,0.151-0.942,0.453-1.359c0.302-0.417,0.729-0.743,1.281-0.98C-5.695-2.701-5.075-2.82-4.388-2.82
		c1.042,0,1.868,0.262,2.48,0.785s0.918,1.259,0.918,2.207v3.664c0.005,0.802,0.117,1.409,0.336,1.82V5.79H-2.935z M-4.802,4.219
		c0.333,0,0.641-0.074,0.922-0.223s0.489-0.348,0.625-0.598V1.946h-0.844c-1.13,0-1.731,0.391-1.805,1.172L-5.911,3.25
		c0,0.281,0.099,0.513,0.297,0.695C-5.416,4.128-5.146,4.219-4.802,4.219z"/>
	<path d="M3.144-2.664l0.07,0.977C3.818-2.442,4.628-2.82,5.644-2.82c0.896,0,1.562,0.263,2,0.789
		c0.438,0.526,0.661,1.312,0.672,2.359V5.79H6.058V0.371c0-0.48-0.104-0.829-0.312-1.045C5.537-0.891,5.19-1,4.706-1
		C4.07-1,3.594-0.728,3.276-0.185V5.79H1.019v-8.453H3.144z"/>
	<path d="M17.143,3.907h4.977V5.79h-7.32V-5.585h2.344V3.907z"/>
	<path d="M28.533,5.79c-0.104-0.203-0.18-0.456-0.227-0.758c-0.547,0.609-1.258,0.914-2.133,0.914c-0.828,0-1.515-0.239-2.059-0.719
		c-0.544-0.479-0.816-1.083-0.816-1.812c0-0.896,0.332-1.583,0.996-2.062c0.664-0.479,1.624-0.721,2.879-0.727h1.039V0.141
		c0-0.391-0.101-0.703-0.301-0.938s-0.517-0.352-0.949-0.352c-0.38,0-0.679,0.091-0.895,0.273c-0.216,0.183-0.324,0.433-0.324,0.75
		h-2.258c0-0.489,0.151-0.942,0.453-1.359c0.302-0.417,0.729-0.743,1.281-0.98c0.552-0.237,1.172-0.355,1.859-0.355
		c1.042,0,1.868,0.262,2.48,0.785s0.918,1.259,0.918,2.207v3.664c0.005,0.802,0.117,1.409,0.336,1.82V5.79H28.533z M26.666,4.219
		c0.333,0,0.641-0.074,0.922-0.223s0.489-0.348,0.625-0.598V1.946h-0.844c-1.13,0-1.731,0.391-1.805,1.172L25.557,3.25
		c0,0.281,0.099,0.513,0.297,0.695C26.052,4.128,26.322,4.219,26.666,4.219z"/>
	<path d="M34.611-2.664l0.07,0.977c0.604-0.755,1.414-1.133,2.43-1.133c0.896,0,1.562,0.263,2,0.789
		c0.438,0.526,0.661,1.312,0.672,2.359V5.79h-2.258V0.371c0-0.48-0.104-0.829-0.312-1.045C37.005-0.891,36.658-1,36.174-1
		c-0.636,0-1.112,0.271-1.43,0.814V5.79h-2.258v-8.453H34.611z"/>
	<path d="M41.485,1.5c0-1.297,0.309-2.341,0.926-3.133c0.617-0.792,1.449-1.188,2.496-1.188c0.927,0,1.648,0.318,2.164,0.953
		l0.094-0.797h2.047v8.172c0,0.739-0.168,1.383-0.504,1.93s-0.809,0.963-1.418,1.25c-0.609,0.286-1.323,0.43-2.141,0.43
		c-0.62,0-1.224-0.124-1.812-0.371c-0.589-0.248-1.034-0.566-1.336-0.957l1-1.375c0.562,0.63,1.245,0.945,2.047,0.945
		c0.599,0,1.065-0.16,1.398-0.48s0.5-0.775,0.5-1.363V5.063c-0.521,0.589-1.206,0.883-2.055,0.883c-1.016,0-1.837-0.397-2.465-1.191
		c-0.628-0.794-0.941-1.848-0.941-3.16V1.5z M43.743,1.661c0,0.769,0.153,1.372,0.461,1.809s0.729,0.655,1.266,0.655
		c0.688,0,1.18-0.259,1.477-0.777v-3.571C46.645-0.741,46.157-1,45.485-1c-0.542,0-0.968,0.223-1.277,0.667
		C43.898,0.112,43.743,0.777,43.743,1.661z"/>
	<path d="M56.329,4.93c-0.558,0.677-1.328,1.016-2.312,1.016c-0.906,0-1.598-0.26-2.074-0.781c-0.477-0.521-0.72-1.284-0.73-2.289
		v-5.539h2.258v5.467c0,0.881,0.401,1.322,1.203,1.322c0.766,0,1.292-0.266,1.578-0.798v-5.991h2.266V5.79h-2.125L56.329,4.93z"/>
	<path d="M65.438,5.79c-0.104-0.203-0.18-0.456-0.227-0.758c-0.547,0.609-1.258,0.914-2.133,0.914c-0.828,0-1.515-0.239-2.059-0.719
		c-0.544-0.479-0.816-1.083-0.816-1.812c0-0.896,0.332-1.583,0.996-2.062c0.664-0.479,1.624-0.721,2.879-0.727h1.039V0.141
		c0-0.391-0.101-0.703-0.301-0.938s-0.517-0.352-0.949-0.352c-0.38,0-0.679,0.091-0.895,0.273c-0.216,0.183-0.324,0.433-0.324,0.75
		h-2.258c0-0.489,0.151-0.942,0.453-1.359c0.302-0.417,0.729-0.743,1.281-0.98c0.552-0.237,1.172-0.355,1.859-0.355
		c1.042,0,1.868,0.262,2.48,0.785s0.918,1.259,0.918,2.207v3.664c0.005,0.802,0.117,1.409,0.336,1.82V5.79H65.438z M63.571,4.219
		c0.333,0,0.641-0.074,0.922-0.223s0.489-0.348,0.625-0.598V1.946h-0.844c-1.13,0-1.731,0.391-1.805,1.172L62.462,3.25
		c0,0.281,0.099,0.513,0.297,0.695C62.957,4.128,63.228,4.219,63.571,4.219z"/>
	<path d="M69.11,1.5c0-1.297,0.309-2.341,0.926-3.133c0.617-0.792,1.449-1.188,2.496-1.188c0.927,0,1.648,0.318,2.164,0.953
		l0.094-0.797h2.047v8.172c0,0.739-0.168,1.383-0.504,1.93s-0.809,0.963-1.418,1.25c-0.609,0.286-1.323,0.43-2.141,0.43
		c-0.62,0-1.224-0.124-1.812-0.371c-0.589-0.248-1.034-0.566-1.336-0.957l1-1.375c0.562,0.63,1.245,0.945,2.047,0.945
		c0.599,0,1.065-0.16,1.398-0.48s0.5-0.775,0.5-1.363V5.063c-0.521,0.589-1.206,0.883-2.055,0.883c-1.016,0-1.837-0.397-2.465-1.191
		c-0.628-0.794-0.941-1.848-0.941-3.16V1.5z M71.368,1.661c0,0.769,0.153,1.372,0.461,1.809s0.729,0.655,1.266,0.655
		c0.688,0,1.18-0.259,1.477-0.777v-3.571C74.27-0.741,73.782-1,73.11-1c-0.542,0-0.968,0.223-1.277,0.667
		C71.523,0.112,71.368,0.777,71.368,1.661z"/>
	<path d="M82.781,5.946c-1.239,0-2.249-0.38-3.027-1.141c-0.778-0.76-1.168-1.773-1.168-3.039V1.547
		c0-0.849,0.164-1.608,0.492-2.277c0.328-0.669,0.793-1.185,1.395-1.547c0.602-0.362,1.288-0.543,2.059-0.543
		c1.156,0,2.066,0.365,2.73,1.094c0.664,0.729,0.996,1.763,0.996,3.102v0.922h-5.383c0.073,0.552,0.293,0.995,0.66,1.328
		c0.367,0.333,0.832,0.5,1.395,0.5c0.87,0,1.55-0.315,2.039-0.945l1.109,1.242c-0.339,0.479-0.797,0.853-1.375,1.121
		C84.125,5.811,83.484,5.946,82.781,5.946z M82.523-1c-0.448,0-0.812,0.152-1.09,0.455c-0.278,0.304-0.457,0.738-0.535,1.303h3.141
		V0.578c-0.011-0.502-0.146-0.891-0.406-1.165C83.372-0.862,83.003-1,82.523-1z"/>
	<path d="M99.727,1.086c0,1.573-0.325,2.776-0.977,3.609c-0.651,0.833-1.604,1.25-2.859,1.25c-1.239,0-2.188-0.409-2.844-1.227
		c-0.656-0.817-0.992-1.989-1.008-3.516V-0.89c0-1.588,0.329-2.794,0.988-3.617c0.659-0.823,1.608-1.234,2.848-1.234
		s2.188,0.408,2.844,1.223c0.656,0.815,0.992,1.986,1.008,3.512V1.086z M97.469-1.215c0-0.944-0.129-1.631-0.387-2.061
		s-0.66-0.645-1.207-0.645c-0.531,0-0.923,0.205-1.176,0.614c-0.253,0.41-0.387,1.049-0.402,1.92V1.38
		c0,0.928,0.126,1.618,0.379,2.069c0.253,0.451,0.657,0.676,1.215,0.676c0.552,0,0.95-0.216,1.195-0.649s0.372-1.095,0.383-1.986
		V-1.215z"/>
	<path d="M109.366,5.79h-7.797V4.243l3.68-3.922c0.505-0.552,0.879-1.034,1.121-1.445c0.242-0.411,0.363-0.802,0.363-1.172
		c0-0.505-0.128-0.902-0.383-1.191s-0.62-0.434-1.094-0.434c-0.511,0-0.913,0.176-1.207,0.527s-0.441,0.814-0.441,1.387h-2.266
		c0-0.692,0.165-1.325,0.496-1.898c0.331-0.573,0.798-1.022,1.402-1.348c0.604-0.325,1.289-0.488,2.055-0.488
		c1.172,0,2.082,0.281,2.73,0.844s0.973,1.357,0.973,2.383c0,0.562-0.146,1.136-0.438,1.719c-0.292,0.583-0.792,1.263-1.5,2.039
		l-2.586,2.727h4.891V5.79z"/>
</g>
<g>
	<path d="M26.452,27.552h1.696c1.066-0.017,1.904-0.297,2.516-0.843c0.609-0.545,0.915-1.281,0.915-2.209
		c0-2.083-1.038-3.125-3.112-3.125c-0.977,0-1.757,0.279-2.338,0.836c-0.582,0.558-0.873,1.297-0.873,2.216h-2.258
		c0-1.407,0.514-2.577,1.544-3.51c1.029-0.932,2.337-1.397,3.925-1.397c1.676,0,2.99,0.443,3.942,1.33
		c0.952,0.888,1.429,2.121,1.429,3.699c0,0.773-0.251,1.521-0.751,2.246c-0.501,0.725-1.183,1.266-2.045,1.623
		c0.977,0.311,1.731,0.822,2.265,1.539c0.532,0.716,0.799,1.591,0.799,2.624c0,1.595-0.521,2.86-1.562,3.796
		c-1.041,0.937-2.396,1.404-4.064,1.404s-3.025-0.451-4.071-1.355c-1.046-0.902-1.568-2.095-1.568-3.576h2.271
		c0,0.936,0.305,1.685,0.916,2.246c0.609,0.562,1.428,0.842,2.453,0.842c1.091,0,1.925-0.284,2.502-0.854
		c0.578-0.57,0.867-1.388,0.867-2.454c0-1.033-0.317-1.827-0.952-2.38c-0.635-0.554-1.55-0.838-2.747-0.855h-1.696V27.552z"/>
	<path d="M47.352,29.958c0,2.645-0.452,4.609-1.354,5.896c-0.904,1.286-2.315,1.929-4.236,1.929c-1.896,0-3.3-0.629-4.211-1.886
		c-0.912-1.258-1.384-3.136-1.416-5.634v-3.016c0-2.611,0.451-4.553,1.354-5.822s2.319-1.904,4.248-1.904
		c1.912,0,3.32,0.612,4.224,1.837c0.903,1.226,1.367,3.115,1.392,5.671V29.958z M45.093,26.869c0-1.912-0.268-3.306-0.805-4.181
		s-1.388-1.312-2.552-1.312c-1.155,0-1.998,0.436-2.526,1.307c-0.529,0.871-0.802,2.209-0.818,4.016v3.613
		c0,1.921,0.278,3.339,0.836,4.254c0.558,0.916,1.402,1.373,2.533,1.373c1.115,0,1.942-0.431,2.484-1.293
		c0.541-0.863,0.824-2.223,0.848-4.078V26.869z"/>
</g>
</svg>
